<svg width="21" height="21" viewBox="0 0 21 21" fill="none" xmlns="http://www.w3.org/2000/svg">
<path d="M20.5206 3.44539C20.2013 3.14851 19.8223 3.00005 19.3849 3.00005H17.7697V1.87501C17.7697 1.35949 17.5718 0.918051 17.1764 0.550863C16.7807 0.183676 16.3056 0 15.7502 0H14.9427C14.3872 0 13.9119 0.183676 13.5165 0.550904C13.1209 0.918051 12.9232 1.35953 12.9232 1.87505V3.00009H8.07724V1.87505C8.07724 1.35953 7.87943 0.918092 7.48395 0.550904C7.08855 0.183676 6.61319 0 6.05779 0H5.25015C4.69488 0 4.21948 0.183676 3.82399 0.550904C3.4286 0.918051 3.23075 1.35953 3.23075 1.87505V3.00009H1.61548C1.17787 3.00009 0.799321 3.14855 0.479601 3.44543C0.159882 3.74227 0 4.09394 0 4.50016V19.5001C0 19.9061 0.159882 20.2577 0.479601 20.5547C0.799277 20.8515 1.17783 21 1.61548 21H19.3846C19.822 21 20.201 20.8515 20.5203 20.5547C20.8401 20.2578 21 19.906 21 19.5001V4.50012C21 4.09378 20.8402 3.74227 20.5206 3.44539ZM5.25002 19.4999H1.61548V16.1248H5.25002V19.4999ZM5.25002 15.375H1.61548V11.6252H5.25002V15.375ZM5.25002 10.8749H1.61548V7.50005H5.25002V10.8749ZM4.96624 5.51368C4.88628 5.43943 4.84636 5.35172 4.84636 5.25005V1.87518C4.84636 1.77363 4.88628 1.68567 4.96624 1.61155C5.0462 1.5373 5.14066 1.50023 5.25015 1.50023H6.05779C6.16714 1.50023 6.26187 1.5373 6.3417 1.61155C6.42166 1.68571 6.46167 1.77363 6.46167 1.87518V5.25005C6.46167 5.35176 6.42149 5.43947 6.3417 5.51368C6.26183 5.58793 6.16728 5.625 6.05779 5.625H5.25015C5.1408 5.62504 5.0462 5.58793 4.96624 5.51368ZM10.0963 19.4999H6.05765V16.1248H10.0963V19.4999ZM10.0963 15.375H6.05765V11.6252H10.0963V15.375ZM10.0963 10.8749H6.05765V7.50005H10.0963V10.8749ZM14.9427 19.4999H10.9041V16.1248H14.9427V19.4999ZM14.9427 15.375H10.9041V11.6252H14.9427V15.375ZM14.9427 10.8749H10.9041V7.50005H14.9427V10.8749ZM14.6586 5.51368C14.5787 5.43943 14.5389 5.35172 14.5389 5.25005V1.87518C14.5389 1.77363 14.5787 1.68567 14.6586 1.61155C14.7385 1.5373 14.8331 1.50023 14.9427 1.50023H15.7502C15.8597 1.50023 15.9542 1.5373 16.0342 1.61155C16.1142 1.68571 16.1539 1.77363 16.1539 1.87518V5.25005C16.1539 5.35176 16.114 5.43947 16.0342 5.51368C15.9544 5.58793 15.8597 5.625 15.7502 5.625H14.9427C14.8332 5.62504 14.7382 5.58793 14.6586 5.51368ZM19.3846 19.4999H15.7498V16.1248H19.3846V19.4999ZM19.3846 15.375H15.7498V11.6252H19.3846V15.375ZM19.3846 10.8749H15.7498V7.50005H19.3846V10.8749Z" fill="#BDC7D8"/>
</svg>
